<?xml version="1.0" encoding="utf-8"?>
<!-- Generator: Adobe Illustrator 26.2.1, SVG Export Plug-In . SVG Version: 6.00 Build 0)  -->
<svg version="1.1" id="Laravel_Flint" xmlns="http://www.w3.org/2000/svg" xmlns:xlink="http://www.w3.org/1999/xlink" x="0px"
	 y="0px" viewBox="0 0 773.6 741.3" style="enable-background:new 0 0 773.6 741.3;" xml:space="preserve">
<style type="text/css">
	.st0{fill:#2D3955;}
	.st1{font-family:'Roboto-Bold';}
	.st2{font-size:130px;}
	.st3{font-family:'Roboto-Light';}
	.st4{fill:#FFF5EB;}
	.st5{fill:#B4009E;}
	.st6{fill:#E4008B;}
	.st7{fill:#FF656F;}
	.st8{fill:#F92E80;}
	.st9{fill:#FFC07A;}
	.st10{fill:#FF9476;}
	.st11{fill:#2D3A56;}
</style>
<g id="Title">
	<text transform="matrix(1 0 0 1 28.83 700.3264)" class="st0 st1 st2">Laravel </text>
	<text transform="matrix(1 0 0 1 489.6299 700.3264)" class="st0 st3 st2">Flint</text>
</g>
<path id="Background" class="st4" d="M614.6,550.4H163.2c-16.6,0-30-13.4-30-30V69c0-16.6,13.4-30,30-30h451.4c16.6,0,30,13.4,30,30
	v451.4C644.6,537,631.2,550.4,614.6,550.4z"/>
<g id="Flint">
	<g>
		<polygon class="st5" points="418.3,96.1 351.8,160.2 351.7,160.3 418.3,226.9 485,160.3 485,160.3 		"/>
		<path class="st6" d="M485,293.5c17.1-17.1,27.6-40.6,27.6-66.6s-10.5-49.6-27.6-66.6l-66.6,66.6L485,293.5z"/>
		<path class="st6" d="M418.1,226.7l-66.4-66.4l-0.1,0.1c-11.5,11.5-20,26-24.4,42.1c-2.1,7.8-3.2,15.9-3.2,24.4
			c0,26,10.5,49.5,27.5,66.6l0.1,0.1l66.6-66.6L418.1,226.7z"/>
		<g>
			<path class="st7" d="M351.6,293.4c-17-17-27.5-40.6-27.5-66.6c0-8.4,1.1-16.6,3.2-24.4c4.3-16.2,12.8-30.6,24.4-42.1l-66.6,66.6
				l0,0c-17,17.1-27.6,40.6-27.6,66.6c0,25.9,10.4,49.3,27.3,66.3l66.6,66.6c-11.4-11.4-19.8-25.8-24.1-41.9
				c-2.1-7.8-3.2-15.9-3.2-24.4c0-8.4,1.1-16.6,3.2-24.4c4.3-16.1,12.8-30.5,24.1-41.9L351.6,293.4L351.6,293.4z"/>
		</g>
		<polygon class="st8" points="485,293.5 484.7,293.2 418.6,227.1 418.3,226.9 352.1,293.1 351.7,293.5 351.8,293.6 418.3,360.1 
			418.6,359.9 		"/>
		<path class="st9" d="M418.4,360.2L418.4,360.2c-0.1-0.1-66.7,66.6-66.7,66.6l66.6,66.6C454.9,459.1,454.4,393.9,418.4,360.2z"/>
		<path class="st10" d="M351.7,293.5L351.7,293.5l-0.3,0.3c-11.4,11.4-19.8,25.8-24.1,41.9c-2.1,7.8-3.2,15.9-3.2,24.4
			c0,8.4,1.1,16.6,3.2,24.4c4.3,16.1,12.8,30.5,24.1,41.9l0.3,0.3l66.3-66.3l0.3-0.3l0,0L351.7,293.5z"/>
	</g>
	<path class="st11" d="M411.8,346l56.9-56.9c17.9-17.9,28.2-42.2,27.8-65.2c-0.4-18.5-7.6-34.8-20.8-47l-45.4-45.4l-14.1-14.4
		L401.5,132l0.1,0l-102,101.8c-15.8,15.8-24.5,38.4-24.1,62.3c0.4,22.3,9.2,43.1,24.1,56.9c0.3,0.3,0.6,0.6,0.9,0.9l3.3,3.3
		c2.8,2.8,6.9,6.9,11.7,11.7c9.7,9.7,22.6,22.6,35.5,35.4c14.7,14.7,29.4,29.4,39.3,39.3c8.9-9,13.2-23.6,10.8-40.1
		c-1.6-6.8-2.4-13.7-2.4-20.4C398.7,372.2,401,356.8,411.8,346z M316.1,336.7c1,1,1.7,2.2,2.3,3.5
		C317.8,338.9,317.1,337.7,316.1,336.7z M376.4,397c-29.4-29.4-58.4-58.4-60.3-60.4c-0.2-0.2-0.3-0.4-0.5-0.5
		c-10.3-9.6-16.4-24.3-16.7-40.4c-0.3-17.6,6-34.1,17.3-45.4l100.2-100l43.2,43.2c0.1,0.1,0.2,0.2,0.3,0.3
		c10.9,10,13.3,22.2,13.5,30.6c0.3,16.8-7.5,34.9-21,48.3l-56.9,56.9c-13,13-19.9,31.5-20,53.6C375.5,387.8,375.8,392.4,376.4,397z"
		/>
</g>
</svg>
